<svg width="24" height="24" viewBox="0 0 24 24" fill="none" xmlns="http://www.w3.org/2000/svg">
<path fill-rule="evenodd" clip-rule="evenodd" d="M12 5.25C8.27208 5.25 5.25 8.27208 5.25 12C5.25 15.7279 8.27208 18.75 12 18.75C15.7279 18.75 18.75 15.7279 18.75 12C18.75 8.27208 15.7279 5.25 12 5.25ZM12 17.25C9.1005 17.25 6.75 14.8995 6.75 12C6.75 9.1005 9.1005 6.75 12 6.75C14.8995 6.75 17.25 9.1005 17.25 12C17.25 13.3924 16.6969 14.7277 15.7123 15.7123C14.7277 16.6969 13.3924 17.25 12 17.25ZM12.75 3.75H11.25V0.75H12.75V3.75ZM11.25 20.25H12.75V23.25H11.25V20.25ZM23.25 11.25V12.75H20.25V11.25H23.25ZM3.75 12.75H0.75V11.25H3.75V12.75ZM18.3675 17.3025L20.4825 19.425L19.425 20.4825L17.3025 18.3675L18.3675 17.3025ZM5.6325 6.6975L3.5175 4.575L4.575 3.5175L6.6975 5.6325L5.6325 6.6975ZM18.3825 6.6975L17.3025 5.6325L19.425 3.5175L20.4825 4.575L18.3825 6.6975ZM5.6325 17.3025L6.6975 18.3675L4.575 20.4825L3.5175 19.425L5.6325 17.3025Z" fill="#1D2329"/>
</svg>
